ply
format ascii 1.0
comment Created by Blender 2.76 (sub 0) - www.blender.org, source file: 'cat2.blend'
element vertex 4
property float x
property float y
property float z
property float nx
property float ny
property float nz
property float s
property float t
element face 2
property list uchar uint vertex_indices
end_header
-2247.117920 -59.394897 2237.316895 0.000000 0.999969 0.000000 0.064348 0.935897
2208.910645 -59.394897 2237.316895 0.000000 1.000000 0.000000 0.946954 0.935897
2208.910645 -59.393402 -2347.519287 0.000000 0.999969 0.000000 0.946954 0.058585
-2247.117920 -59.393402 -2347.519287 0.000000 1.000000 0.000000 0.064348 0.058585
3 0 2 1
3 3 2 0
